<svg xmlns="http://www.w3.org/2000/svg" viewBox="0 0 674.1 212.65"><defs><style>.a343c76c-6c66-4061-a15d-f9c84faa4c93,.af668838-c182-4bea-a0f5-e380c0363035,.afacda24-26ea-4404-addb-fcfc183867a9{font-size:159.35px;font-family:BambiBold, Bambi Bold;}.afacda24-26ea-4404-addb-fcfc183867a9{fill:#fc1a6c;}.af668838-c182-4bea-a0f5-e380c0363035{fill:none;stroke:#000;stroke-width:9px;}.a343c76c-6c66-4061-a15d-f9c84faa4c93{fill:#ef259d;}</style></defs><title>error</title><g id="e330d017-cadb-463e-a6ec-c97c49baab21" data-name="Layer 2"><text class="afacda24-26ea-4404-addb-fcfc183867a9" transform="translate(19.5 163.47) scale(1.3 1.05)">error</text><text class="afacda24-26ea-4404-addb-fcfc183867a9" transform="translate(18.5 162.47) scale(1.3 1.05)">error</text><text class="afacda24-26ea-4404-addb-fcfc183867a9" transform="translate(17.5 161.47) scale(1.3 1.05)">error</text><text class="afacda24-26ea-4404-addb-fcfc183867a9" transform="translate(16.5 160.47) scale(1.3 1.05)">error</text><text class="afacda24-26ea-4404-addb-fcfc183867a9" transform="translate(15.5 159.47) scale(1.3 1.05)">error</text><text class="afacda24-26ea-4404-addb-fcfc183867a9" transform="translate(14.5 158.47) scale(1.3 1.05)">error</text><text class="afacda24-26ea-4404-addb-fcfc183867a9" transform="translate(13.5 157.47) scale(1.3 1.05)">error</text><text class="afacda24-26ea-4404-addb-fcfc183867a9" transform="translate(12.5 156.47) scale(1.3 1.05)">error</text><text class="afacda24-26ea-4404-addb-fcfc183867a9" transform="translate(11.5 155.47) scale(1.3 1.05)">error</text><text class="afacda24-26ea-4404-addb-fcfc183867a9" transform="translate(10.5 154.47) scale(1.3 1.05)">error</text><text class="afacda24-26ea-4404-addb-fcfc183867a9" transform="translate(9.5 153.47) scale(1.3 1.05)">error</text><text class="afacda24-26ea-4404-addb-fcfc183867a9" transform="translate(8.5 152.47) scale(1.3 1.05)">error</text><text class="afacda24-26ea-4404-addb-fcfc183867a9" transform="translate(7.5 151.47) scale(1.3 1.05)">error</text><text class="afacda24-26ea-4404-addb-fcfc183867a9" transform="translate(6.5 150.47) scale(1.3 1.05)">error</text><text class="afacda24-26ea-4404-addb-fcfc183867a9" transform="translate(5.5 149.47) scale(1.3 1.05)">error</text><text class="afacda24-26ea-4404-addb-fcfc183867a9" transform="translate(4.5 148.47) scale(1.3 1.05)">error</text><text class="afacda24-26ea-4404-addb-fcfc183867a9" transform="translate(4.5 148.47) scale(1.3 1.05)">error</text><text class="af668838-c182-4bea-a0f5-e380c0363035" transform="translate(14.5 158.47) scale(1.3 1.05)">error</text><text class="af668838-c182-4bea-a0f5-e380c0363035" transform="translate(13.5 157.47) scale(1.3 1.05)">error</text><text class="af668838-c182-4bea-a0f5-e380c0363035" transform="translate(12.5 156.47) scale(1.3 1.05)">error</text><text class="af668838-c182-4bea-a0f5-e380c0363035" transform="translate(11.5 155.47) scale(1.3 1.05)">error</text><text class="af668838-c182-4bea-a0f5-e380c0363035" transform="translate(10.5 154.47) scale(1.3 1.05)">error</text><text class="af668838-c182-4bea-a0f5-e380c0363035" transform="translate(9.5 153.47) scale(1.3 1.05)">error</text><text class="af668838-c182-4bea-a0f5-e380c0363035" transform="translate(8.5 152.47) scale(1.3 1.05)">error</text><text class="af668838-c182-4bea-a0f5-e380c0363035" transform="translate(7.5 151.47) scale(1.3 1.05)">error</text><text class="af668838-c182-4bea-a0f5-e380c0363035" transform="translate(6.5 150.47) scale(1.3 1.05)">error</text><text class="af668838-c182-4bea-a0f5-e380c0363035" transform="translate(5.5 149.47) scale(1.3 1.05)">error</text><text class="af668838-c182-4bea-a0f5-e380c0363035" transform="translate(4.5 148.47) scale(1.3 1.05)">error</text><text class="a343c76c-6c66-4061-a15d-f9c84faa4c93" transform="translate(4.5 148.47) scale(1.3 1.05)">error</text></g></svg>