<svg xmlns="http://www.w3.org/2000/svg" viewBox="0 0 398.85 212.65"><defs><style>.ede87004-aa0d-46d8-a976-ef2e80e58580,.ef6237ac-a38f-449d-8786-3efa1d10a428,.f9ddbcbc-cf25-4e89-a9a3-9792441638c7{font-size:159.35px;font-family:BambiBold, Bambi Bold;}.ede87004-aa0d-46d8-a976-ef2e80e58580{fill:#fc1a6c;}.ef6237ac-a38f-449d-8786-3efa1d10a428{fill:none;stroke:#000;stroke-width:9px;}.f9ddbcbc-cf25-4e89-a9a3-9792441638c7{fill:#ef259d;}</style></defs><title>fourZeroFour</title><g id="ab5b1faa-a569-48d6-b87f-9a5587860043" data-name="Layer 2"><text class="ede87004-aa0d-46d8-a976-ef2e80e58580" transform="translate(19.85 163.47) scale(1.3 1.05)">404</text><text class="ede87004-aa0d-46d8-a976-ef2e80e58580" transform="translate(18.85 162.47) scale(1.3 1.05)">404</text><text class="ede87004-aa0d-46d8-a976-ef2e80e58580" transform="translate(17.85 161.47) scale(1.3 1.05)">404</text><text class="ede87004-aa0d-46d8-a976-ef2e80e58580" transform="translate(16.85 160.47) scale(1.3 1.05)">404</text><text class="ede87004-aa0d-46d8-a976-ef2e80e58580" transform="translate(15.85 159.47) scale(1.3 1.05)">404</text><text class="ede87004-aa0d-46d8-a976-ef2e80e58580" transform="translate(14.85 158.47) scale(1.3 1.05)">404</text><text class="ede87004-aa0d-46d8-a976-ef2e80e58580" transform="translate(13.85 157.47) scale(1.3 1.05)">404</text><text class="ede87004-aa0d-46d8-a976-ef2e80e58580" transform="translate(12.85 156.47) scale(1.3 1.05)">404</text><text class="ede87004-aa0d-46d8-a976-ef2e80e58580" transform="translate(11.85 155.47) scale(1.3 1.05)">404</text><text class="ede87004-aa0d-46d8-a976-ef2e80e58580" transform="translate(10.85 154.47) scale(1.3 1.05)">404</text><text class="ede87004-aa0d-46d8-a976-ef2e80e58580" transform="translate(9.85 153.47) scale(1.3 1.05)">404</text><text class="ede87004-aa0d-46d8-a976-ef2e80e58580" transform="translate(8.85 152.47) scale(1.3 1.05)">404</text><text class="ede87004-aa0d-46d8-a976-ef2e80e58580" transform="translate(7.85 151.47) scale(1.3 1.05)">404</text><text class="ede87004-aa0d-46d8-a976-ef2e80e58580" transform="translate(6.85 150.47) scale(1.3 1.05)">404</text><text class="ede87004-aa0d-46d8-a976-ef2e80e58580" transform="translate(5.85 149.47) scale(1.3 1.05)">404</text><text class="ede87004-aa0d-46d8-a976-ef2e80e58580" transform="translate(4.85 148.47) scale(1.3 1.05)">404</text><text class="ede87004-aa0d-46d8-a976-ef2e80e58580" transform="translate(4.85 148.47) scale(1.3 1.05)">404</text><text class="ef6237ac-a38f-449d-8786-3efa1d10a428" transform="translate(14.85 158.47) scale(1.3 1.05)">404</text><text class="ef6237ac-a38f-449d-8786-3efa1d10a428" transform="translate(13.85 157.47) scale(1.3 1.05)">404</text><text class="ef6237ac-a38f-449d-8786-3efa1d10a428" transform="translate(12.85 156.47) scale(1.3 1.05)">404</text><text class="ef6237ac-a38f-449d-8786-3efa1d10a428" transform="translate(11.85 155.47) scale(1.3 1.05)">404</text><text class="ef6237ac-a38f-449d-8786-3efa1d10a428" transform="translate(10.85 154.47) scale(1.3 1.05)">404</text><text class="ef6237ac-a38f-449d-8786-3efa1d10a428" transform="translate(9.85 153.47) scale(1.3 1.05)">404</text><text class="ef6237ac-a38f-449d-8786-3efa1d10a428" transform="translate(8.85 152.47) scale(1.3 1.05)">404</text><text class="ef6237ac-a38f-449d-8786-3efa1d10a428" transform="translate(7.85 151.47) scale(1.3 1.05)">404</text><text class="ef6237ac-a38f-449d-8786-3efa1d10a428" transform="translate(6.85 150.47) scale(1.3 1.05)">404</text><text class="ef6237ac-a38f-449d-8786-3efa1d10a428" transform="translate(5.85 149.47) scale(1.3 1.05)">404</text><text class="ef6237ac-a38f-449d-8786-3efa1d10a428" transform="translate(4.85 148.47) scale(1.3 1.05)">404</text><text class="f9ddbcbc-cf25-4e89-a9a3-9792441638c7" transform="translate(4.85 148.47) scale(1.3 1.05)">404</text></g></svg>