<svg xmlns="http://www.w3.org/2000/svg" viewBox="0 0 1176.38 1279.4"><defs><style>.aa0e1664-a9a9-480c-a988-ccacd4a3d04b{fill:#338916;}</style></defs><title>ganjapatta</title><g id="bfd26b3d-c82f-4992-8b1d-aaaabe3a8a47" data-name="Layer 2"><path class="aa0e1664-a9a9-480c-a988-ccacd4a3d04b" d="M639.65,6c-.7,3.3-3.8,12.9-7,21.5-8.1,21.9-21.7,62.5-23.1,68.8l-1.1,5.3-5.2-.6-5.3-.7-1.8,10.4a108,108,0,0,0-1.7,17.2l.1,6.8-2.7-.6a50.3,50.3,0,0,1-4.9-1.2c-1.9-.5-2.3,0-3.8,4.8-2.6,8.8-4.8,25.7-4.1,32,.6,5.3.5,5.8-1.2,5.8a22.48,22.48,0,0,1-6.6-2.1c-2.5-1.1-5.1-1.7-5.6-1.4-2.9,1.8-4.2,24.3-1.8,34.4.6,2.8.9,5.4.6,5.7s-3.4-.4-6.7-1.6c-9.2-3.4-9.5-3.1-8.8,10.3a111.72,111.72,0,0,0,2.5,18.7c1.1,4.1,2.2,8.2,2.4,9,.3,1.7-.6,1.7-9.6.6l-5.9-.8.5,14.4c.5,11.8,1,15.7,3.3,22.6,1.4,4.6,2.4,8.6,2.2,8.8s-3.4,0-7-.7c-9.9-1.8-10.1-1.7-9.5,9.9a56.56,56.56,0,0,0,3.7,18.7c1.7,4.9,3.1,9.5,3.1,10.3,0,1.1-1.6,1.2-8,.6l-8-.7v3.6c0,7.4,5.4,26.2,9.7,33.6,3.1,5.3,2.3,6.1-5.8,5.4-5.1-.5-6-.3-6.6,1.3-.9,2.4,3.9,20.9,8.2,31.8a80.08,80.08,0,0,1,3.5,9.7c0,.7-2.3,1-6.7.7l-6.8-.3-.3,2.8c-.5,4,5.2,22.5,9.9,32.6,2.1,4.6,3.9,8.5,3.9,8.7s-2,.4-4.4.4a26.25,26.25,0,0,0-7.1,1c-2.3.9-2.6,1.4-2,3.7,1.2,5.1,7.8,21,14.1,34.2,3.5,7.4,6.4,13.5,6.4,13.7a38.87,38.87,0,0,1-5.4,1.5c-7.9,1.7-7.9,1.8-6,7.5,2.3,6.9,12.5,26.6,17.8,34.6l4.5,6.6-4.2.7c-8.5,1.4-9.3,3.4-5.4,12,3.2,6.7,12.3,21.4,18.6,29.8,2.8,3.7,5.1,6.9,5.1,7.1,0,1.2-7.1,1.1-9.9,0-4.7-1.9-6.2-1.8-10.1,1.1-1.9,1.4-3.9,2.5-4.5,2.5-.8,0-1.4-4.1-1.9-12.8-.7-12.5-2.1-27-3.2-32.5-.7-3.4-2.6-3.4-8.3-.2a35,35,0,0,1-4.6,2.5c-.2,0-.6-7.1-1-15.8-.9-21.3-2.9-33.2-5.5-33.2-.4,0-3.8,2-7.6,4.5l-6.9,4.4-.7-14.2c-1-17.6-3.5-31-6.1-31.5-.9-.2-4.3,1.3-7.4,3.2-4.1,2.6-5.9,3.2-6.4,2.3-.3-.6-.9-6.6-1.2-13.2-.6-12.7-3.5-26.7-6-29.2-1.3-1.3-2.3-1.1-8.5,1.5-3.9,1.7-7.3,2.8-7.6,2.5s-.6-2.7-.6-5.2a53.9,53.9,0,0,0-2.1-12.1c-1.9-7.2-9.6-26-10.6-26a64.08,64.08,0,0,0-6.7,4.5c-8.2,5.8-9.6,5.8-9.6.2,0-8.3-8.9-32.7-12.4-34-.9-.4-4.1.7-7.2,2.4a39.82,39.82,0,0,1-5.9,2.7c0-.2-.7-3.2-1.4-6.8-1.6-8.3-8.6-26.3-11.5-29.7l-2.2-2.5-5.6,3.1c-6.5,3.7-6.9,3.4-8.7-5.2-2.2-9.9-9.9-27-12.7-28.1-.7-.3-3.6,1-6.5,2.9s-5.6,3.5-6.3,3.5-1.9-3-2.8-6.8c-1.6-7-8.5-22.6-13.1-30-3.4-5.2-5.4-5.3-11.7-.7a37.17,37.17,0,0,1-5.3,3.5c-.3,0-1-2.4-1.7-5.3-1.5-7-9.1-22.5-12.9-26.1l-3-2.9-4.3,3.2c-4,2.9-4.4,3-5.5,1.4a6.28,6.28,0,0,1-1.3-3.1c0-1.8-7.2-16.2-10-20.2-2.5-3.6-3.6-3.7-6.6-.9-2.4,2.2-4.4,1.9-4.4-.8,0-2-4.6-10.3-11-19.8-2.6-3.9-7.3-11.7-10.5-17.5s-6.8-11.9-8-13.5a30.55,30.55,0,0,1-3.5-7c-1.8-5.7-12.7-27.4-15.8-31.4-1.4-1.9-2.7-3-2.9-2.4-1,2.9,13.1,68.5,15.8,73.4.8,1.6.7,2.5-.7,4-1.7,1.9-1.7,2.3,1.5,11.4,2.5,7.1,3,9.8,2.2,11.2-1.4,2.7,0,8.2,4.4,17,2,4.1,3.4,8.1,3.1,8.9s-1.9,1.4-3.6,1.4-3.3.6-3.6,1.3c-.6,1.7,5.4,14.8,10.5,23,2.3,3.5,4.1,7.1,4.1,8,0,1.7-2,2.7-5.5,2.7-4,0-4.9,2.3-2.7,7.3s10.3,17.2,15,22.7l3,3.5-5,1.5c-7.3,2.2-8,3.8-4.3,10.8,4.2,8,11,18,15.7,22.8l4,4.2-5.3,2.8c-7.6,4.2-8,5.2-3.7,11.6a175.57,175.57,0,0,0,11.7,14.6c4.6,5.1,8.1,9.9,7.9,10.8s-2.3,2.4-4.8,3.3c-5.1,1.9-6.1,4.2-3.6,8.8,2.2,4.2,14.3,17.3,21.4,23.3,3.4,2.8,6.2,5.6,6.2,6s-2,2.3-4.5,4-4.5,3.6-4.5,4.2c0,2.3,4.6,7.5,15.4,17.5,6.1,5.7,12.4,11.3,14,12.6l3,2.4-6,3.5c-8.8,5.1-8.6,6.1,3.4,17.8,5.6,5.4,12.8,11.6,16.1,13.8l6,4-4.5,3.7c-2.5,2-4.4,4-4.2,4.4.7,1.8,17.1,15.8,26.6,22.8,5.6,4.2,10.2,7.9,10.2,8.4s-2,2.2-4.5,3.9-4.5,3.9-4.5,5c0,2.9,24.4,20.2,34.5,24.4,3.1,1.3,3.5,1.8,2.6,3.5a17.14,17.14,0,0,1-3.8,3.9l-2.7,1.9,3.8,4.4c2,2.4,3.9,5.3,4.2,6.5.6,2.2-1,6.4-2.4,6.4-.5,0-3-3-5.7-6.8-8-11.1-22.3-24.9-24-23-.1.2-1,1.6-1.8,3.3a53.71,53.71,0,0,1-3.4,5.3l-1.8,2.2-4.2-6.2c-5-7.7-19.3-21.8-22-21.8-1.3,0-2.9,1.6-4.7,5-1.5,2.7-3,5-3.4,5s-3.5-3.1-6.8-6.8c-5.5-6.1-22.4-21.2-23.7-21.2-.3,0-1.9,2.2-3.7,5s-3.8,5-4.5,5-2.4-1.7-3.8-3.8c-4.6-6.6-21.8-21.7-23-20.1-.2.2-1.8,2.9-3.6,5.9s-3.5,5.6-3.6,5.8-3.6-3-7.7-7.1c-6.7-6.8-20.2-16.7-22.7-16.7-.6,0-2.7,2.5-4.7,5.5s-3.8,5.5-3.9,5.5-3.4-3.1-7.2-6.9c-6.9-6.9-19.9-16.1-22.7-16.1-.9,0-2.7,2.3-4.2,5.2-4.3,8.6-4.1,8.5-9.8,3-7.6-7.4-27.7-18.2-31.2-16.8-.8.3-2.1,2.3-3,4.6-1.9,4.7-3.5,5-7.8,1.3-3.6-3-16.9-9.4-24.2-11.6-5.3-1.6-8.4-.9-8.4,1.8,0,2-.2,1.9-5.8-.9a134.92,134.92,0,0,0-15.7-5.6c-6.1-1.7-15.9-4.7-22-6.7-20.8-6.6-46.4-12.6-45.1-10.5.3.6,8.6,5.9,18.4,11.8,22,13.4,57.3,36.7,61.8,41,2.4,2.2,3.4,4,3.4,6.2,0,3.8,2,5.5,16.8,14.7l11.1,6.9-2.4,3.2c-1.4,1.8-2.2,3.9-1.9,4.8.7,1.9,10.5,8.1,21.4,13.6,4.7,2.3,8.6,4.3,8.8,4.5s-.5,1.9-1.4,3.8c-1.6,3.3-1.6,3.7,0,6.1.9,1.4,4.3,3.9,7.6,5.6,5.5,2.8,5.9,3.2,6.2,6.7s.9,4.1,5.7,7a112.72,112.72,0,0,0,13,6.4c4.2,1.7,7.8,3.3,8,3.5s-1.2,2.3-3.1,4.6c-5.3,6.5-6.3,8.7-4.6,10.4,1.5,1.5,22,9.5,29.3,11.4a28.94,28.94,0,0,1,5.7,1.9c.4.4-.6,2.7-2.2,5.1s-3,5.3-3,6.3c0,2.6,11.6,7.7,26.5,11.7,6.6,1.8,12.4,3.6,12.8,4s-.4,3-1.9,5.8c-2.1,4.2-2.4,5.5-1.5,6.6,2.5,2.9,10.4,4.7,35.9,8.2l4.2.5-2.7,4.9c-2.2,4-2.5,5.1-1.4,6.4,2.5,3,13.9,5.6,31.4,7.1,6.7.6,7.8.9,7.2,2.3a32.51,32.51,0,0,0-1.2,4.3c-.4,2.3-.1,2.8,2.8,3.7,5.7,1.8,17.4,3.2,31.8,3.9l13.8.6-.8,3.5c-.4,2-.4,4.3.2,5.3,2,3.8,12.4,6.3,35.8,8.6,7.3.8,7.5.9,8.3,3.9,1.5,5.7,16.2,11.3,30,11.4,11,0,21.1,3.2,22.3,7,.4,1.3,2.3,2.5,5.8,3.5,5.4,1.5,31.8,5.5,36.4,5.5,1.4,0,4.5,1.1,6.9,2.5,4.7,2.7,13.4,5.3,39.7,11.5,9.8,2.4,17.6,4.4,17.5,4.6s-8.8-.5-19-1.4-19-1.3-19.4-.9-.1,1.3.6,2.2c2.2,2.7.2,3-8.4,1.2a163.33,163.33,0,0,0-20.1-2.4l-11.7-.6.7,3.1c.3,1.8.5,3.2.2,3.2s-2.4-.9-4.9-2c-4.3-1.9-24-5-31.8-5h-3.8l1,3.6c.5,2,.7,3.8.4,4.1s-3.8-.4-7.8-1.5a132.32,132.32,0,0,0-26-4.5l-4.8-.5v5.4c0,3-.2,5.4-.4,5.4s-2.3-.7-4.7-1.5c-4.3-1.6-13.8-3.8-21.1-5a18.11,18.11,0,0,0-6.2.1c-2.4.6-2.6,1.1-2.6,5.5,0,5.7-.2,5.8-8.6,2.8s-24.4-3.8-27.9-1.5c-2.2,1.4-2.5,2.4-2.5,7.1,0,6.3.3,6.1-9,3.9a91,91,0,0,0-16.4-1.7c-9-.1-10,.1-11.6,2.1-1.3,1.6-1.6,3.3-1.3,6.7.3,2.5.2,4.5-.2,4.5s-4.7-.7-9.4-1.6c-8.3-1.6-18.1-1.5-22.5.2-1.6.6-1.8,1.4-1.2,5.9l.6,5.2-13.8.7c-16.4.9-18.6,1.7-19,6.9-.2,2-.4,3.7-.6,3.7-10.9,0-77,23.4-82.2,29.1-.9,1-1.5,2-1.3,2s19.3.7,42.4,1.3c39.6,1.1,42.2,1.3,46,3.3,3.2,1.7,6.6,2.3,17.6,2.8,7.5.4,14,1,14.6,1.3a7.2,7.2,0,0,1,1.6,3.3c1.1,4.3,5.1,5.3,18.3,4.5l11.4-.6V928a7.88,7.88,0,0,0,2.2,4.6c2.2,2,3,2.1,15.3,1.6,7.2-.3,16.2-1.3,20-2.3,13.1-3.1,12.1-3.2,12.8,2.1.2,2.6,1.1,5.1,1.8,5.6,3.4,2.1,10.4.8,22.7-4.1,6.9-2.8,13.4-5,14.6-4.8,1.5.2,2.2,1.4,2.8,4.3.5,2.1,1.4,4.3,2.1,4.7,2.5,1.6,8.5.7,18.2-2.8,15.6-5.5,17.2-5.8,21.3-4.5,3.6,1.1,4.2.9,20.7-7.3,9.4-4.6,18.7-8.7,20.9-9.1s10.5-3.9,18.7-7.9,16.5-7.6,18.8-7.9,6.4-2.1,9.3-4,5.4-3.4,5.6-3.3a8.71,8.71,0,0,1-1,3.1c-1.1,2.5-1,2.9,1.7,5l2.8,2.3-7.8,9.8c-11.3,14-12,16.2-7.1,20.3,1.4,1.2,1,2-3.3,6.7a150.17,150.17,0,0,0-11.7,15.5l-6.9,10.1,2.9,2.4c3.6,3.1,3.3,4.2-4.3,18.2a144.79,144.79,0,0,0-7.1,14.5c-1.1,3.5-1,4.1,1,6.2s2.2,3.1,1.7,8.2c-2.9,27.2-2.7,61.7.3,67.2,1.5,2.9,1.2,3.4,8.7-12.9,6.6-14.3,17.2-32.9,19.4-34,.9-.5,4-5,7-10.1,7.4-12.5,15.3-21,23.5-25,7.6-3.8,8.9-5.3,17.4-20.9,7-13,9.6-16.6,12.5-17.6a10.78,10.78,0,0,0,3.5-1.9,9.16,9.16,0,0,1,4-1.7c3.5-.4,4.6-3.4,8.9-23.1l3.7-17.2h3.4c4,0,5.6-2.4,6.5-9.3.3-2.3.8-6.2,1.1-8.7.8-7,2.1-4.5,2.8,5.7,2.2,30.8,6.1,169.6,7.6,267.8.5,36,1.1,73.8,1.2,83.8.3,17.9.4,18.4,2.7,20.3,3.3,2.7,6.5,2.4,10.6-1.2,5.6-4.9,5.7-6.9,4-42.6-2.1-45.1-7.2-189.3-8.6-244.9-1.3-48.9-.5-75.7,2.2-79,1.7-2.1,2.5-.9,4.4,6.6,2.3,9,4.1,12,6.9,12,5.3,0,10,7.4,16.7,26.3,1.6,4.4,3.5,8.8,4.3,9.6,1.6,1.5,1.2,1.7,8.4-3.5,1.2-.9,2.4-1.5,2.5-1.3l7.1,14.2c7.6,15.5,11.1,20.1,17.2,22.7,5.2,2.3,12.2,10,32.7,36.4,8.9,11.5,16.8,21.1,17.6,21.4,2.3.8.7-13.2-3.3-30.1-2-8.1-3.6-16.9-3.6-19.6,0-5.5-3-16.3-6.5-23.1l-2.3-4.5,2.4-1.8c1.3-1,2.4-2.4,2.4-3.2,0-1.8-9.4-20-12.4-24-3.9-5.3-4-5.5-.7-6.6,2.2-.8,3.1-1.7,3.1-3.3,0-3.2-6.4-13.4-15.3-24.3l-7.9-9.8,3-1.2a12.08,12.08,0,0,0,3.7-2.2c.3-.6-3.5-5.6-8.5-11.1-12.7-14.2-12.3-15.2,2-5.9,9.7,6.3,18.4,10.9,20.9,10.9.7,0,8.4,3.5,17,7.7,15.3,7.6,15.8,7.7,25.1,8.3,7.6.5,10.9,1.3,16.5,3.7,9.7,4.3,14.3,5.5,19.5,5.1,4.1-.3,4.5-.6,5-3.3.8-4,3-3.8,15.1,1.4,10.2,4.3,18.1,6.5,20.9,5.6.9-.3,2.1-2,2.6-3.7,1.6-5.3,3-5.5,15.1-2,18.2,5.4,28.3,5.2,29.1-.6.5-3.3,2.1-3.6,11.3-1.7,11.2,2.3,23.7,1.8,27.6-1.1a18.93,18.93,0,0,1,7.8-2.8c2.8-.4,26.6-1.1,53-1.5,34.5-.6,48.8-1.2,51-2.1l3-1.3-6-2.7c-3.3-1.5-13.9-5.6-23.5-9-16.5-5.9-50.7-19.1-54-20.9a4.57,4.57,0,0,1-1.7-3.2,28.69,28.69,0,0,0-.2-3.5c-.2-2.2-17.6-6.3-26.8-6.4h-6.3v-5.4c0-5.2-.1-5.5-3.1-6.5-1.8-.6-8.2-1.1-14.4-1.1H892l.5-5c.4-4.7.3-5-2.2-6-1.5-.5-9.4-1-17.5-1h-14.7v-4.6c.1-4.5,0-4.7-3.9-6.1-4.7-1.7-16.8-1.1-25.5,1.2-3,.8-5.8,1.5-6.2,1.5s-.8-2.5-.8-5.5c0-4.6-.3-5.6-2.2-6.7-3.6-2-17.2-1.4-25.4,1-3.9,1.2-7.3,2.2-7.6,2.2s-.3-2.4,0-5.3l.4-5.4-6.8.9c-9.7,1.1-17.1,2.7-22.9,4.9l-5.1,1.9a15.17,15.17,0,0,1,0-3.3c.1-2.8-.2-3.2-2.7-3.5-3.5-.4-17.7,3.3-22.9,5.9-3.3,1.7-4.2,1.8-4.9.7a4.57,4.57,0,0,1-.9-2.1c0-1.1-7.1-.9-13,.4-2.8.6-5.4.9-5.7.6-.8-.9,5.7-2.3,22.7-5.3,17.3-2.9,19.4-3.7,18.5-6.3s2.9-3.8,18-5.6c18.8-2.2,25.3-4,31.4-8.5,5.3-4,6.3-4.3,22.6-6,18.5-2,22-3.4,22.7-9.5l.3-3,11.7-1.1c13.9-1.4,24.7-4.4,28.9-8.2l3.1-2.8-2.1-3.4a17.5,17.5,0,0,1-2.1-4.6c0-.7,2.5-1.5,5.8-1.8,12.1-1.5,34.7-8.2,36.3-10.8.4-.6-.2-3.1-1.4-5.5-1.3-2.7-1.7-4.6-1.1-5.2s6.5-2.5,13.4-4.6c10.6-3.2,28.6-9.8,29.9-11.1.2-.2-1.3-2.2-3.3-4.4-4-4.5-4.5-6-1.8-6,5.6,0,32.6-10.1,33.6-12.5.3-.8-1.1-3.6-3-6.2a67.42,67.42,0,0,1-4.1-6.2c-.8-1.8,1.6-3.5,8-5.6,8.1-2.5,25.2-11.4,28.3-14.6l2.8-2.9-4.3-4.4c-2.7-2.7-4.2-5-3.8-5.9s4.5-3.7,9.4-6.3c9.4-5,26.3-16.2,26.3-17.3a24.25,24.25,0,0,0-3.1-4.4c-3.7-4.5-3.3-6.2,1.8-7.6,4-1.1,21.9-13.5,23.7-16.4.8-1.2.5-2.3-1.2-4.6a13.73,13.73,0,0,1-2.2-4c0-.5,4.2-3.4,9.3-6.5,9.9-5.9,15.7-10.7,15.7-12.8a8.33,8.33,0,0,0-1.5-3.5c-1.5-2.1-1.1-2.4,9.7-10.2,16.7-12,37.7-21.5,64.6-29.4,10-2.9,12.1-4.1,10.4-5.9-1-1-5.2-1.3-16.5-1.2-12.6.1-19.1.8-37.7,3.8-13.9,2.3-24.9,4.7-28.8,6.3l-6.2,2.4-2.6-2c-2.4-1.9-2.8-1.9-7.7-.4-7.4,2.1-18.4,7.5-23.9,11.7-2.6,2-5.1,3.6-5.6,3.6s-1.9-1.6-3.1-3.5-2.6-3.5-3.4-3.5c-2.6,0-18.3,10.5-23.4,15.7l-5.2,5.2-1.6-4.7c-1-2.6-1.9-5.3-2.1-6-.8-2.9-7.3-.4-17.7,6.7a105.77,105.77,0,0,0-11.7,9.6c-2.4,2.5-5,4.5-5.7,4.5s-2.4-2.2-3.8-4.9a26.09,26.09,0,0,0-3.4-5.6c-2-1.2-9.1,3.6-18.1,12.2-5.1,4.8-9.6,9.8-10.1,11.1-1.3,3.4-3.1,1.6-5.9-5.8-1.2-3.3-2.8-6-3.5-6-3.2,0-17.8,12.8-22.6,19.9-1.9,2.8-3.8,5-4.4,5s-2.2-1.8-3.7-3.9-3.3-4-4-4c-2.2,0-21.1,20.4-24.9,26.9l-3.6,6-2.3-4.9a26.27,26.27,0,0,0-4.1-6.6c-1.7-1.5-2-1.5-4.7.5-3.7,2.6-19,20.2-22.6,25.9-3.1,4.9-4.6,5-5.8.4-.6-2.1-2.2-4.1-4.9-5.9l-3.9-2.6,7.5-4.3c11.1-6.3,26.3-17.1,28.2-20.1,1.6-2.5,1.6-2.6-.9-4.7-1.4-1.1-3.4-2.7-4.4-3.3-1.9-1.2-1.9-1.3.1-2.8,1.1-.9,6.7-4.7,12.5-8.4,11-7.2,24-18.3,24-20.6,0-.7-2.3-2.9-5-4.9s-5-4-5-4.4,1.5-1.5,3.3-2.4c3.7-1.9,23.2-18.9,24.7-21.7s.6-4.1-4.1-7.4c-4.9-3.4-5.2-2.8,9.7-16.5,13-11.9,16.9-16.5,15.1-18a22.84,22.84,0,0,0-9.7-4.1c-6.4-1.1-5.4-3.8,5.9-15.5,12.1-12.6,18-21,16.4-23.4-.5-.9-3.5-2.4-6.6-3.2s-5.9-1.8-6.3-2.3,1-2.4,3.2-4.5c4.4-4.3,12-15.3,15.5-22.5,2.7-5.5,2.4-5.9-4.9-7.8-2.3-.6-4.4-1.5-4.7-1.9s2.9-5.1,7-10.5c7-9.1,14.5-22.1,14.5-25.1,0-.8-1-1.6-2.2-1.8-6.9-1.4-7.9-1.8-8.4-3-.3-.7,1-3,2.8-5,4.8-5.4,16.8-23.8,16.8-25.7,0-1.2-1.3-1.8-5-2.3-3.1-.4-5.3-1.3-5.7-2.2s1.1-4,3.3-7.2c5.3-8,11.4-20.2,11.4-22.9,0-1.7-.8-2.5-4-3.3-4.7-1.3-4.8-2-1.6-6.3,3.1-4.1,10.6-19.2,10.6-21.3a2.54,2.54,0,0,0-1.9-2.1c-2.8-.7-3.3-3-1.6-6.3.8-1.6,3.5-8.1,6-14.4A202.53,202.53,0,0,1,993,195.6c6.3-9.8,7.2-11.7,6.8-14.8-.1-.8.5-1,1.4-.7s1.5,0,1.5-1c0-2.3-3.1-2-6.6.6-9.8,7.3-34.7,32.8-37.9,38.9a12.52,12.52,0,0,1-4.5,3.7c-3.9,1.9-13,12.6-16.1,18.9-2.6,5.3-3.5,5.9-5.9,3.8-1.1-1-2.6-1.5-3.4-1.2-2.2.9-7.7,9.4-11.2,17.5a66.43,66.43,0,0,1-3.8,7.9c-.3.4-2.2-.9-4.2-2.8l-3.5-3.4-2.1,2.5c-2.7,3.2-9.8,18.2-9.8,20.6a7.52,7.52,0,0,1-1,3.4c-.8,1.3-1.5,1.2-5.1-.8-4.1-2.1-4.3-2.1-6.2-.5-2.7,2.4-11.6,21.3-12.6,26.9-.5,2.5-1.1,4.8-1.5,5.1s-2.9-1.1-5.8-3.1-5.9-3.6-6.5-3.6c-3.7,0-12.3,18.9-13.1,28.8-.3,3.4-.8,6.4-1.2,6.7s-3.3-1.4-6.6-3.6-6.2-3.9-6.6-3.9c-1.3,0-9.7,18.7-11.8,26.3-1.2,4.2-2,9.6-1.8,11.9.4,5.3-1.5,6-6.9,2.4-4.4-3-6.5-3.2-8.5-.9-3.3,4.1-7.8,20.1-7.8,28.2,0,2.8-.4,5.1-.8,5.1a35.8,35.8,0,0,1-6.7-3.2l-5.8-3.1-2.2,2.7c-4,5-10.5,26.7-10.5,35,0,6.1-1.4,6.5-8.3,2.6l-5.6-3.1-1.5,2.3c-2.3,3.5-4.5,13.2-5.5,24.2-.6,5.4-1.2,10-1.5,10.3s-2.7-.9-5.4-2.6a40.56,40.56,0,0,0-5.4-3.1c-.3,0-1.5,2.1-2.6,4.7-2.8,6.6-5.2,19.7-5.9,32.5-.3,6-.9,10.8-1.2,10.8a39.6,39.6,0,0,1-5.5-3.5c-5.5-3.9-8.1-4.4-9.5-1.7-2.1,3.9-4.3,18.5-4.8,31.9l-.6,14.3-3.1-2c-7-4.3-9-5-10.2-3.7-2,2.1-3.4,10.4-4.4,25.5-.5,8.1-1,16.1-1,17.9v3.2l-3.5-2a20.41,20.41,0,0,1-4.1-3.1c-.4-.6.4-4,1.6-7.7,3-8.8,2.5-10.1-3.9-10.1-2.7,0-5.3-.4-5.6-1s1.7-4.7,4.4-9.3c4.9-8.1,14.3-27,15.6-31.4.5-1.9.1-2.5-2-3.3a19.83,19.83,0,0,0-5.5-1c-1.6,0-3.1-.4-3.4-.9s1.7-5.2,4.5-10.5c5.7-10.8,14.7-32.6,15.1-36.4.3-2.9-1.9-3.9-8.9-4.1-2.4-.1-4.3-.5-4.3-1.1s1.6-3.5,3.6-6.6c5.6-8.7,16.4-34.7,15-36.1-.3-.3-3.7-.5-7.5-.4-4,.1-7.2-.2-7.6-.8s1.4-4.8,3.9-9.4c4.3-7.9,10.6-23.7,12-30.2l.7-3-7.6.3c-4.1.2-7.5,0-7.5-.4s1.3-2.8,2.9-5.1c3.6-5.4,9.1-22.2,9.1-28.1v-4.5l-7.5.5c-4.5.3-7.5.1-7.5-.5s1.5-3.5,3.4-6.6c4.8-8,8.8-18.7,9.4-24.9.4-5.2.4-5.2-2.5-5.2a63.73,63.73,0,0,0-8.7,1.1c-3.1.5-6.1.9-6.6.7s.7-3.8,2.6-8.2c4.7-10.6,8.4-25.5,8.4-34,0-5.4-.3-6.7-1.4-6.3a61.55,61.55,0,0,1-8.6,1.3l-7.1.7,1.7-3.9c4.4-9.9,7.5-20.7,7.7-27.1l.2-6.8-3.5.1c-1.9,0-6.1.4-9.2.8l-5.7.8,2-6.8c2.1-7.4,4.3-34.1,3.3-39.4-.7-3.3-2.6-3.7-9.6-2.1-2,.5-3.9.7-4.1.4s.2-2.8,1-5.6c1.9-6.9,3-32.1,1.4-33.1-.6-.4-3.7.2-6.7,1.4s-5.9,1.8-6.2,1.5,0-2.1.7-4c1.4-3.9,3.1-18.2,3.1-26.4v-5.3l-4.6.7c-4.5.6-4.7.6-4-1.7.3-1.3,1.1-6.6,1.7-11.8,1.1-9.9.6-16.4-1.4-18.9-1.9-2.3-1.3-27.8,1.3-54.1L645,14l-2-7-2-7Zm30,617.9a41.06,41.06,0,0,1-.6,8c-1.1,2.8-11.4,1.3-11.4-1.6,0-2,9-12.8,10.6-12.8C669.35,617.5,669.65,619,669.65,623.9Zm-110.8,15.8c6.4,8.4,14.8,20.8,14.8,21.9,0,.4-1.8,1-4,1.4-2.5.4-4,1.2-4,2.1,0,2.9,3.1,8.7,10.4,19.7,9.5,14.4,11.6,18.7,11.6,23.7a22.42,22.42,0,0,0,2.4,8.8c5,9.8,10.8,32.6,14.6,56.8,2.4,15.2,3.6,38.8,2.2,42.4-.9,2.3-1.3,1.8-5.9-7.5-8.8-17.4-17.9-39.6-20.6-50-3.5-13.3-7.7-34.4-7.7-38.6,0-5.4-1.1-6.4-5-4.4-1.7.9-3.3,1.5-3.4,1.3s-.8-11.5-1.5-25.1-1.6-26-2.2-27.4c-.8-2.1-1.4-2.4-3.6-1.8-1.5.3-3.2.7-3.7.8-1.8.3-2.6-7.7-2-19.6.4-6.4,1-11.7,1.4-11.7S555.85,635.8,558.85,639.7Zm110.4,6.5c.8,6.5-.7,6.9-7.5,1.7-.2-.2.8-1.7,2.3-3.4s2.6-3.7,2.6-4.3.3-.7.9-.2S668.85,643.4,669.25,646.2Zm-248.9,5.4c3.2,2,3.3,2.3,2,4.3-.8,1.1-2.1,2.1-2.8,2.1-1.2,0-4.7-5.6-4.9-7.8C414.65,648.9,416.85,649.5,420.35,651.6Zm376,1.1c-1,2.4-1.9,3.2-3.3,3-2.1-.4-4.4-2.1-4.4-3.2s4.2-2.9,6.8-2.9C797.55,649.5,797.55,649.6,796.35,652.7Zm-137.7,30.5c0,15.4-.1,16.9-1,16.7a35.83,35.83,0,0,0-3.7-.8l-3.1-.7-.6,8.8c-2.3,31.6-2.6,33.3-7.7,50.1-2.8,8.9-6.8,20.6-8.9,26-4.7,12-14.9,33.2-16,33.2-.9,0-.8-.8,1.5-16.5,1.6-10.5,10.6-52.2,13.2-61.3,1.1-3.9,1.2-5.6.4-6.6-1.9-2.2,4.9-23.5,10.8-34.1,3.4-6.1,6.5-15.1,5.6-16.5a3.5,3.5,0,0,0-2.6-1c-3.1,0-2.3-3.3,2.1-8.8C657.25,660.8,658.65,662.4,658.65,683.2Zm-202,4.8a1.5,1.5,0,1,1-1.5-1.5A1.54,1.54,0,0,1,456.65,688Zm36,32.1c0,.8-.4,1.4-1,1.4s-1-.9-1-2.1.5-1.7,1-1.4A2.52,2.52,0,0,1,492.65,720.1Zm36,28.9c18,12.3,36.6,29.6,54.2,50.6,4.7,5.5,11.8,16.5,11.8,18.2,0,1.2-7.4-4.3-18.8-13.9-13.9-11.6-33.5-32.2-42.2-44.1l-7.4-10.3-2.8,2.7-2.8,2.6-1.5-3.6c-1.9-4.6-1.9-7.7,0-7.7C520,743.5,524.25,746,528.65,749Zm151,18.8c0,2.2-5,8.5-13.1,16.7-8.8,8.9-34.8,32.4-35.4,31.9-.7-.8,7.1-11.6,12.2-16.8,2.9-3,5.3-5.9,5.3-6.4,0-1.5,16.6-17.4,23.1-22.2S679.65,765.7,679.65,767.8Zm9.7,50.3a2,2,0,0,1-1.9.1c-.8-.3-.5-.6.6-.6S689.75,817.8,689.35,818.1Z"/></g></svg>